<?xml version="1.0" standalone="no"?>
<!DOCTYPE svg PUBLIC "-//W3C//DTD SVG 20010904//EN"
 "http://www.w3.org/TR/2001/REC-SVG-20010904/DTD/svg10.dtd">
<svg version="1.0" xmlns="http://www.w3.org/2000/svg"
 width="400.000000pt" height="400.000000pt" viewBox="0 0 400.000000 400.000000"
 preserveAspectRatio="xMidYMid meet">
<metadata>
Created by potrace 1.14, written by Peter Selinger 2001-2017
</metadata>
<g transform="translate(0.000000,400.000000) scale(0.100000,-0.100000)"
fill="#000000" stroke="none">
<path d="M1825 3980 c-420 -108 -657 -538 -520 -947 15 -43 27 -82 28 -87 1
-6 -200 -10 -523 -11 l-525 0 -45 -25 c-24 -14 -58 -44 -74 -68 -30 -43 -30
-44 -31 -177 l0 -135 -50 2 c-96 2 -87 30 -83 -249 3 -247 3 -248 31 -307 15
-33 43 -78 62 -101 l34 -42 2 -917 1 -916 1867 0 1868 0 0 913 0 914 40 54
c85 114 91 144 93 427 l1 227 -68 -2 -68 -2 0 127 c0 116 -2 131 -25 172 -16
28 -43 55 -73 74 l-49 30 -526 1 c-454 1 -527 3 -525 16 1 7 11 40 23 73 59
162 55 352 -11 519 -68 173 -233 338 -406 406 -133 52 -315 65 -448 31z"/>
</g>
</svg>
