<?xml version="1.0" encoding="UTF-8" standalone="no"?>
<svg
   xmlns:dc="http://purl.org/dc/elements/1.1/"
   xmlns:cc="http://creativecommons.org/ns#"
   xmlns:rdf="http://www.w3.org/1999/02/22-rdf-syntax-ns#"
   xmlns:svg="http://www.w3.org/2000/svg"
   xmlns="http://www.w3.org/2000/svg"
   xmlns:sodipodi="http://sodipodi.sourceforge.net/DTD/sodipodi-0.dtd"
   xmlns:inkscape="http://www.inkscape.org/namespaces/inkscape"
   version="1.1"
   width="512"
   height="512"
   x="0"
   y="0"
   viewBox="0 0 64 64"
   style="enable-background:new 0 0 512 512"
   xml:space="preserve"
   class=""
   id="svg80"
   sodipodi:docname="burger.svg"
   inkscape:version="1.0.2-2 (e86c870879, 2021-01-15)"><metadata
     id="metadata86"><rdf:RDF><cc:Work
         rdf:about=""><dc:format>image/svg+xml</dc:format><dc:type
           rdf:resource="http://purl.org/dc/dcmitype/StillImage" /></cc:Work></rdf:RDF></metadata><defs
     id="defs84" /><sodipodi:namedview
     pagecolor="#ffffff"
     bordercolor="#666666"
     borderopacity="1"
     objecttolerance="10"
     gridtolerance="10"
     guidetolerance="10"
     inkscape:pageopacity="0"
     inkscape:pageshadow="2"
     inkscape:window-width="1920"
     inkscape:window-height="1027"
     id="namedview82"
     showgrid="false"
     inkscape:zoom="1.1575153"
     inkscape:cx="286.56877"
     inkscape:cy="327.42773"
     inkscape:window-x="-8"
     inkscape:window-y="22"
     inkscape:window-maximized="1"
     inkscape:current-layer="svg80" /><g
     transform="matrix(0.83333316,0,0,0.83333316,5.2083337,-1.0416568)"
     id="g78"><path
       d="M 4,28 H 60 V 62 H 4 Z"
       fill="#f1f1f1"
       data-original="#cccccc"
       class=""
       id="path4" /><path
       d="m 4,28 v 30 h 49 a 4,4 0 0 0 4,-4 V 28 Z"
       fill="#f2f2f2"
       data-original="#f2f2f2"
       class=""
       id="path6" /><path
       d="m 50,28 v 2 a 6,6 0 0 0 12,0 v -2 z"
       fill="#aa2b24"
       data-original="#aa2b24"
       class=""
       id="path8" /><path
       d="M 44,40 H 56 V 58 H 44 Z"
       fill="#bce4f8"
       data-original="#bce4f8"
       id="path10" /><path
       d="m 44,40 v 16 h 5 a 4,4 0 0 0 4,-4 V 40 Z"
       fill="#e4f5fd"
       data-original="#e4f5fd"
       id="path12" /><path
       d="M 57,18 H 7 a 3,3 0 0 0 -3,3 v 3 h 56 v -3 a 3,3 0 0 0 -3,-3 z"
       fill="#aa2b24"
       data-original="#aa2b24"
       class=""
       id="path14" /><path
       d="M 55,18 H 7 a 3,3 0 0 0 -3,3 h 48 a 3,3 0 0 0 3,-3 z"
       fill="#d24034"
       data-original="#d24034"
       id="path16" /><circle
       cx="32"
       cy="13"
       fill="#bce4f8"
       r="11"
       data-original="#bce4f8"
       id="circle18" /><path
       d="M 32,2 A 10.992,10.992 0 0 0 22.787,19 H 35 a 4,4 0 0 0 4,-4 V 4.515 A 10.955,10.955 0 0 0 32,2 Z"
       fill="#e4f5fd"
       data-original="#e4f5fd"
       id="path20" /><path
       d="m 26,28 v 2 a 6,6 0 0 0 12,0 v -2 z"
       fill="#aa2b24"
       data-original="#aa2b24"
       class=""
       id="path22" /><path
       d="M 30.5,35.8 A 6,6 0 0 0 35,30 v -2 h -9 v 2 a 6,6 0 0 0 4.5,5.8 z"
       fill="#d24034"
       data-original="#d24034"
       id="path24" /><path
       d="m 14,28 v 2 a 6,6 0 0 0 12,0 v -2 z"
       fill="#aa2b24"
       data-original="#aa2b24"
       class=""
       id="path26" /><path
       d="M 18.5,35.8 A 6,6 0 0 0 23,30 v -2 h -9 v 2 a 6,6 0 0 0 4.5,5.8 z"
       fill="#d24034"
       data-original="#d24034"
       id="path28" /><path
       d="m 2,28 v 2 a 6,6 0 0 0 12,0 v -2 z"
       fill="#aa2b24"
       data-original="#aa2b24"
       class=""
       id="path30" /><path
       d="M 6.5,35.8 A 6,6 0 0 0 11,30 V 28 H 2 v 2 a 6,6 0 0 0 4.5,5.8 z"
       fill="#d24034"
       data-original="#d24034"
       id="path32" /><path
       d="M 54.5,35.8 A 6,6 0 0 0 59,30 v -2 h -9 v 2 a 6,6 0 0 0 4.5,5.8 z"
       fill="#d24034"
       data-original="#d24034"
       id="path34" /><path
       d="m 38,28 v 2 a 6,6 0 0 0 12,0 v -2 z"
       fill="#aa2b24"
       data-original="#aa2b24"
       class=""
       id="path36" /><path
       d="M 42.5,35.8 A 6,6 0 0 0 47,30 v -2 h -9 v 2 a 6,6 0 0 0 4.5,5.8 z"
       fill="#d24034"
       data-original="#d24034"
       id="path38" /><path
       d="m 2,24 h 60 v 4 H 2 Z"
       fill="#db665d"
       data-original="#db665d"
       class=""
       id="path40" /><path
       d="M 24,40 H 40 V 62 H 24 Z"
       fill="#bce4f8"
       data-original="#bce4f8"
       id="path42" /><path
       d="m 28,44 h 8 v 10 h -8 z"
       fill="#e4f5fd"
       data-original="#e4f5fd"
       id="path44" /><path
       d="m 24,58 h 16 v 4 H 24 Z"
       fill="#d24034"
       data-original="#d24034"
       id="path46" /><g
       fill="#fff"
       id="g54"><path
         d="m 44,44.586 v 2.828 L 51.414,40 h -2.828 z"
         fill="#ffffff"
         data-original="#ffffff"
         class=""
         id="path48" /><path
         d="m 56,40 h -1.414 l -4.293,4.293 1.414,1.414 L 56,41.414 Z"
         fill="#ffffff"
         data-original="#ffffff"
         class=""
         id="path50" /><path
         d="m 47.586,46 h 2.828 v 2 h -2.828 z"
         transform="matrix(0.707,-0.707,0.707,0.707,-18.882,48.414)"
         fill="#ffffff"
         data-original="#ffffff"
         class=""
         id="path52" /></g><rect
       fill="#594139"
       height="4"
       rx="2"
       width="14"
       x="25"
       y="11"
       data-original="#594139"
       class=""
       id="rect56" /><path
       d="M 37,15 H 27 A 1.987,1.987 0 0 1 26,14.723 V 17 a 2,2 0 0 0 2,2 h 8 a 2,2 0 0 0 2,-2 V 14.723 A 1.987,1.987 0 0 1 37,15 Z"
       fill="#f3a845"
       data-original="#f3a845"
       class=""
       id="path58" /><path
       d="m 27,11 h 10 a 1.987,1.987 0 0 1 1,0.277 V 11 A 4,4 0 0 0 34,7 h -4 a 4,4 0 0 0 -4,4 v 0.277 A 1.987,1.987 0 0 1 27,11 Z"
       fill="#f3a845"
       data-original="#f3a845"
       class=""
       id="path60" /><path
       d="M 34,9 A 2,2 0 0 0 35.925,7.514 3.96,3.96 0 0 0 34,7 h -4 a 3.982,3.982 0 0 0 -3.445,2 z"
       fill="#eecc61"
       data-original="#eecc61"
       id="path62" /><path
       d="M 36,15 H 27 A 1.987,1.987 0 0 1 26,14.723 V 17 h 8 a 2,2 0 0 0 2,-2 z"
       fill="#eecc61"
       data-original="#eecc61"
       id="path64" /><path
       d="m 36,11 h -9 a 2,2 0 0 0 -2,2 h 9 a 2,2 0 0 0 2,-2 z"
       fill="#896f65"
       data-original="#896f65"
       id="path66" /><path
       d="M 8,40 H 20 V 58 H 8 Z"
       fill="#bce4f8"
       data-original="#bce4f8"
       id="path68" /><path
       d="m 8,40 v 16 h 5 a 4,4 0 0 0 4,-4 V 40 Z"
       fill="#e4f5fd"
       data-original="#e4f5fd"
       id="path70" /><path
       d="m 8,44.586 v 2.828 L 15.414,40 h -2.828 z"
       fill="#ffffff"
       data-original="#ffffff"
       class=""
       id="path72" /><path
       d="m 20,40 h -1.414 l -4.293,4.293 1.414,1.414 L 20,41.414 Z"
       fill="#ffffff"
       data-original="#ffffff"
       class=""
       id="path74" /><path
       d="m 11.586,46 h 2.828 v 2 h -2.828 z"
       fill="#ffffff"
       transform="matrix(0.707,-0.707,0.707,0.707,-29.426,22.958)"
       data-original="#ffffff"
       class=""
       id="path76" /></g><path
     sodipodi:type="star"
     style="opacity:1;fill:#4d4d4d;stroke:none;stroke-width:0.125"
     id="path1565"
     sodipodi:sides="3"
     sodipodi:cx="33.083469"
     sodipodi:cy="48.111584"
     sodipodi:r1="7.8924618"
     sodipodi:r2="3.9462309"
     sodipodi:arg1="1.5707963"
     sodipodi:arg2="2.6179939"
     inkscape:flatsided="false"
     inkscape:rounded="0"
     inkscape:randomized="0"
     d="m 33.08347,56.004045 -3.417537,-5.919346 -3.417536,-5.919346 6.835072,0 6.835073,0 -3.417536,5.919346 z"
     inkscape:transform-center-y="2.0833387"
     transform="matrix(0.97536135,0,0,1.0558597,-0.39334012,3.9925874)" /></svg>
